<svg width="14" height="15" viewBox="0 0 14 15" fill="none" xmlns="http://www.w3.org/2000/svg">
<g id="Effects" clip-path="url(#clip0_20_29335)">
<path id="Vector" d="M13.4306 5.16715H12.1472C12.0695 5.16715 12.0527 5.19748 12.0061 5.25893L9.41181 7.83221V7.81471L8.33731 5.2282C8.32136 5.18232 8.30581 5.16715 8.24319 5.16715H4.68136L4.92247 4.12182C5.37747 2.06265 6.32247 1.69865 7.06953 1.69865C7.46609 1.76211 7.85642 1.8597 8.23619 1.99032C8.29025 2.0082 8.32681 1.97243 8.34508 1.90165L8.58153 0.871871C8.59981 0.818594 8.56364 0.765705 8.50881 0.729927C8.04552 0.609522 7.56986 0.543099 7.09131 0.531982C5.32614 0.531982 4.05214 1.53026 3.45169 4.21087L3.21058 5.16715H1.45475C1.44168 5.1657 1.42846 5.16686 1.41585 5.17056C1.40324 5.17426 1.39148 5.18044 1.38128 5.18873C1.37108 5.19701 1.36262 5.20725 1.35641 5.21883C1.35019 5.23042 1.34634 5.24312 1.34508 5.2562L0.981083 6.22843L0.976028 6.26343C0.981472 6.27043 1.00558 6.26343 1.05381 6.33459H2.78553C2.62181 7.13259 0.980305 13.2171 0.598417 14.2994C0.561861 14.3881 0.598417 14.4414 0.67075 14.4414C0.816583 14.4239 1.65619 14.495 2.09292 14.4414C2.18353 14.4239 2.22008 14.406 2.23836 14.3173C2.62025 13.1631 3.62553 9.67126 4.33486 6.33382H6.19453C6.23342 6.33382 6.98708 6.32409 7.40008 6.28482L8.49675 8.47154C7.54047 9.52154 6.34697 10.9803 5.35919 12.0606C5.34943 12.0678 5.34212 12.0778 5.33826 12.0893C5.3344 12.1009 5.33418 12.1133 5.33762 12.1249C5.34106 12.1365 5.348 12.1468 5.35749 12.1544C5.36699 12.162 5.37858 12.1664 5.39069 12.1671H6.73664C6.81442 12.1671 8.63753 10.0084 9.20219 9.29326H9.21736C9.21736 9.29326 10.7822 12.1671 10.8452 12.1671H12.1146C12.1772 12.1671 12.2087 12.1213 12.1772 12.0606C11.8326 11.3303 10.6769 9.44532 10.2378 8.5322C11.1155 7.58876 12.7267 6.11059 13.4776 5.2737C13.5251 5.2282 13.5091 5.16715 13.4306 5.16715Z" fill="#008C87"/>
</g>
<defs>
<clipPath id="clip0_20_29335">
<rect width="14" height="14" fill="white" transform="translate(0.000732422 0.500488)"/>
</clipPath>
</defs>
</svg>
