<svg width="18" height="18" viewBox="0 0 18 18" fill="none" xmlns="http://www.w3.org/2000/svg">
<g id="Segmentation">
<g id="Vector">
<path d="M9.00074 11.1011C10.1608 11.1011 11.1012 10.1606 11.1012 9.00057C11.1012 7.8405 10.1608 6.90007 9.00074 6.90007C7.84066 6.90007 6.90024 7.8405 6.90024 9.00057C6.90024 10.1606 7.84066 11.1011 9.00074 11.1011Z" fill="#008C87"/>
<path d="M13.0752 9.75057C12.9674 10.3539 12.7264 10.9255 12.3698 11.424C12.0132 11.9224 11.55 12.3351 11.0139 12.632C10.4777 12.929 9.88217 13.1026 9.27047 13.1404C8.65878 13.1782 8.04635 13.0792 7.47774 12.8506L5.41924 16.1441C6.58077 16.7294 7.8677 17.0221 9.16812 16.9967C10.4685 16.9713 11.7431 16.6286 12.8809 15.9984C14.0187 15.3683 14.9853 14.4696 15.6967 13.3808C16.4081 12.2919 16.8427 11.0457 16.9627 9.75057H13.0752ZM9.75074 4.92607C10.5532 5.07288 11.2944 5.45388 11.8807 6.02107L15.0402 3.76457C13.6948 2.20754 11.7996 1.23082 9.75074 1.03857V4.92607ZM15.9122 4.98557L12.7507 7.24507C12.9024 7.56479 13.0121 7.90275 13.0772 8.25057H16.9647C16.8562 7.09851 16.497 5.98414 15.9122 4.98557ZM6.20874 12.0506C5.63717 11.5324 5.22216 10.8646 5.01072 10.1226C4.79928 9.38072 4.79987 8.59441 5.01243 7.85281C5.22498 7.1112 5.64101 6.44396 6.21335 5.92668C6.7857 5.40941 7.49148 5.06278 8.25074 4.92607V1.03857C6.64895 1.18749 5.12942 1.81643 3.89093 2.84309C2.65244 3.86975 1.75268 5.24633 1.30935 6.79273C0.866024 8.33913 0.899784 9.98333 1.40621 11.5102C1.91264 13.0371 2.86815 14.3756 4.14774 15.3506L6.20874 12.0506Z" fill="#008C87"/>
</g>
</g>
</svg>
